<svg width="53" height="52" viewBox="0 0 53 52" fill="none" xmlns="http://www.w3.org/2000/svg">
<g filter="url(#filter0_d_696_2404)">
<rect x="0.666656" width="48" height="48" rx="6" fill="#084D45"/>
<path fill-rule="evenodd" clip-rule="evenodd" d="M18.4396 28.0665C18.4988 27.9876 18.5755 27.9235 18.6637 27.8794C18.752 27.8353 18.8493 27.8123 18.9479 27.8123H22.125C22.2935 27.8123 22.4551 27.8793 22.5743 27.9984C22.6935 28.1176 22.7604 28.2792 22.7604 28.4478C22.7604 28.6163 22.6935 28.7779 22.5743 28.8971C22.4551 29.0162 22.2935 29.0832 22.125 29.0832H19.2656L16.4062 32.8958H32.9271L30.0677 29.0832H27.2083C27.0398 29.0832 26.8782 29.0162 26.759 28.8971C26.6399 28.7779 26.5729 28.6163 26.5729 28.4478C26.5729 28.2792 26.6399 28.1176 26.759 27.9984C26.8782 27.8793 27.0398 27.8123 27.2083 27.8123H30.3854C30.4841 27.8123 30.5813 27.8353 30.6696 27.8794C30.7578 27.9235 30.8346 27.9876 30.8937 28.0665L34.7062 33.15C34.777 33.2444 34.8202 33.3566 34.8308 33.4741C34.8414 33.5917 34.819 33.7098 34.7662 33.8154C34.7135 33.9209 34.6324 34.0097 34.532 34.0717C34.4316 34.1338 34.3159 34.1666 34.1979 34.1666H15.1354C15.0174 34.1666 14.9017 34.1338 14.8013 34.0717C14.701 34.0097 14.6198 33.9209 14.5671 33.8154C14.5143 33.7098 14.492 33.5917 14.5026 33.4741C14.5132 33.3566 14.5563 33.2444 14.6271 33.15L18.4396 28.0665Z" fill="white"/>
<path fill-rule="evenodd" clip-rule="evenodd" d="M24.6666 15.1037C24.166 15.1037 23.6702 15.2023 23.2077 15.3939C22.7451 15.5855 22.3248 15.8663 21.9708 16.2204C21.6168 16.5744 21.336 16.9947 21.1444 17.4573C20.9528 17.9198 20.8541 18.4156 20.8541 18.9163C20.8541 19.417 20.9528 19.9127 21.1444 20.3753C21.336 20.8379 21.6168 21.2582 21.9708 21.6122C22.3248 21.9662 22.7451 22.2471 23.2077 22.4387C23.6702 22.6303 24.166 22.7289 24.6666 22.7289C25.6778 22.7289 26.6475 22.3272 27.3625 21.6122C28.0775 20.8972 28.4792 19.9274 28.4792 18.9163C28.4792 17.9051 28.0775 16.9354 27.3625 16.2204C26.6475 15.5054 25.6778 15.1037 24.6666 15.1037ZM19.5833 18.9163C19.5834 17.938 19.8658 16.9805 20.3965 16.1588C20.9273 15.337 21.6839 14.6858 22.5755 14.2834C23.4671 13.8809 24.456 13.7443 25.4233 13.8899C26.3907 14.0356 27.2955 14.4572 28.0291 15.1043C28.7628 15.7514 29.2942 16.5965 29.5595 17.5381C29.8248 18.4797 29.8128 19.4779 29.5249 20.4128C29.237 21.3478 28.6854 22.1798 27.9364 22.8091C27.1873 23.4383 26.2726 23.8381 25.3021 23.9603V30.9895C25.3021 31.158 25.2351 31.3196 25.116 31.4388C24.9968 31.558 24.8352 31.6249 24.6666 31.6249C24.4981 31.6249 24.3365 31.558 24.2173 31.4388C24.0982 31.3196 24.0312 31.158 24.0312 30.9895V23.9616C22.8023 23.8068 21.6722 23.2085 20.8531 22.2793C20.0341 21.35 19.5826 20.155 19.5833 18.9163Z" fill="white"/>
</g>
<defs>
<filter id="filter0_d_696_2404" x="0.666656" y="0" width="52" height="52" filterUnits="userSpaceOnUse" color-interpolation-filters="sRGB">
<feFlood flood-opacity="0" result="BackgroundImageFix"/>
<feColorMatrix in="SourceAlpha" type="matrix" values="0 0 0 0 0 0 0 0 0 0 0 0 0 0 0 0 0 0 127 0" result="hardAlpha"/>
<feOffset dx="4" dy="4"/>
<feComposite in2="hardAlpha" operator="out"/>
<feColorMatrix type="matrix" values="0 0 0 0 0.0313726 0 0 0 0 0.301961 0 0 0 0 0.270588 0 0 0 0.3 0"/>
<feBlend mode="normal" in2="BackgroundImageFix" result="effect1_dropShadow_696_2404"/>
<feBlend mode="normal" in="SourceGraphic" in2="effect1_dropShadow_696_2404" result="shape"/>
</filter>
</defs>
</svg>
