<svg width="24" height="24" viewBox="0 0 24 24" fill="none" xmlns="http://www.w3.org/2000/svg">
<g clip-path="url(#clip0_696_3038)">
<path d="M14.271 15.3143C13.866 15.7223 14.208 16.4663 14.208 16.4663L17.2575 21.5573C17.2575 21.5573 17.7585 22.2278 18.192 22.2278C18.627 22.2278 19.0575 21.8693 19.0575 21.8693L21.468 18.4238C21.468 18.4238 21.711 17.9888 21.717 17.6078C21.726 17.0663 20.91 16.9178 20.91 16.9178L15.2025 15.0848C15.2025 15.0848 14.643 14.9363 14.271 15.3128V15.3143ZM13.9815 12.7493C14.274 13.2443 15.0795 13.1003 15.0795 13.1003L20.7735 11.4368C20.7735 11.4368 21.549 11.1218 21.66 10.7003C21.768 10.2788 21.5325 9.77183 21.5325 9.77183L18.8115 6.56633C18.8115 6.56633 18.576 6.16133 18.087 6.12083C17.547 6.07433 17.2155 6.72833 17.2155 6.72833L13.998 11.7908C13.998 11.7908 13.713 12.2948 13.983 12.7508L13.9815 12.7493ZM11.2905 10.7753C11.961 10.6103 12.0675 9.63683 12.0675 9.63683L12.0225 1.53083C12.0225 1.53083 11.922 0.530331 11.472 0.260331C10.767 -0.167169 10.5585 0.0563308 10.356 0.0863308L5.62949 1.84283C5.62949 1.84283 5.16599 1.99583 4.92599 2.38283C4.58099 2.93033 5.27549 3.73133 5.27549 3.73133L10.1895 10.4288C10.1895 10.4288 10.674 10.9298 11.292 10.7783L11.2905 10.7753ZM10.1235 14.0558C10.14 13.4303 9.37349 13.0553 9.37349 13.0553L4.29299 10.4888C4.29299 10.4888 3.53999 10.1783 3.17399 10.3943C2.89349 10.5593 2.64599 10.8593 2.62199 11.1233L2.29049 15.1973C2.29049 15.1973 2.24099 15.9038 2.42399 16.2248C2.68349 16.6808 3.53549 16.3628 3.53549 16.3628L9.46799 15.0518C9.69899 14.8973 10.1025 14.8823 10.125 14.0558H10.1235ZM11.598 16.2548C11.0895 15.9938 10.479 16.5353 10.479 16.5353L6.50699 20.9078C6.50699 20.9078 6.01199 21.5768 6.13799 21.9878C6.25649 22.3733 6.45299 22.5638 6.73199 22.6988L10.7205 23.9573C10.7205 23.9573 11.2035 24.0578 11.571 23.9513C12.0915 23.8013 11.9955 22.9868 11.9955 22.9868L12.0855 17.0663C12.0855 17.0663 12.0645 16.4963 11.5995 16.2548H11.598Z" fill="#91BD14"/>
</g>
<defs>
<clipPath id="clip0_696_3038">
<rect width="24" height="24" fill="white"/>
</clipPath>
</defs>
</svg>
